<svg viewBox="0 0 600 980" xmlns="http://www.w3.org/2000/svg">
  <!-- Простой скелет для демонстрации -->
  <defs>
    <linearGradient id="bodyGradient" x1="0%" y1="0%" x2="100%" y2="100%">
      <stop offset="0%" style="stop-color:#6c757d;stop-opacity:1" />
      <stop offset="100%" style="stop-color:#495057;stop-opacity:1" />
    </linearGradient>
  </defs>
  
  <!-- Голова -->
  <ellipse cx="300" cy="100" rx="40" ry="35" fill="url(#bodyGradient)" stroke="#343a40" stroke-width="2"/>
  
  <!-- Шея -->
  <rect x="280" y="135" width="40" height="25" rx="5" fill="url(#bodyGradient)" stroke="#343a40" stroke-width="2"/>
  
  <!-- Торс -->
  <ellipse cx="300" cy="250" rx="60" ry="100" fill="url(#bodyGradient)" stroke="#343a40" stroke-width="2"/>
  
  <!-- Руки -->
  <ellipse cx="200" cy="200" rx="25" ry="15" fill="url(#bodyGradient)" stroke="#343a40" stroke-width="2"/>
  <ellipse cx="180" cy="280" rx="15" ry="40" fill="url(#bodyGradient)" stroke="#343a40" stroke-width="2"/>
  <ellipse cx="170" cy="380" rx="12" ry="25" fill="url(#bodyGradient)" stroke="#343a40" stroke-width="2"/>
  
  <ellipse cx="400" cy="200" rx="25" ry="15" fill="url(#bodyGradient)" stroke="#343a40" stroke-width="2"/>
  <ellipse cx="420" cy="280" rx="15" ry="40" fill="url(#bodyGradient)" stroke="#343a40" stroke-width="2"/>
  <ellipse cx="430" cy="380" rx="12" ry="25" fill="url(#bodyGradient)" stroke="#343a40" stroke-width="2"/>
  
  <!-- Ноги -->
  <ellipse cx="250" cy="450" rx="20" ry="50" fill="url(#bodyGradient)" stroke="#343a40" stroke-width="2"/>
  <ellipse cx="240" cy="580" rx="15" ry="40" fill="url(#bodyGradient)" stroke="#343a40" stroke-width="2"/>
  <ellipse cx="230" cy="680" rx="20" ry="12" fill="url(#bodyGradient)" stroke="#343a40" stroke-width="2"/>
  
  <ellipse cx="350" cy="450" rx="20" ry="50" fill="url(#bodyGradient)" stroke="#343a40" stroke-width="2"/>
  <ellipse cx="360" cy="580" rx="15" ry="40" fill="url(#bodyGradient)" stroke="#343a40" stroke-width="2"/>
  <ellipse cx="370" cy="680" rx="20" ry="12" fill="url(#bodyGradient)" stroke="#343a40" stroke-width="2"/>
</svg>
