<svg width="17" height="19" viewBox="0 0 17 19" fill="none" xmlns="http://www.w3.org/2000/svg">
<path d="M9.94164 16.8331C9.79514 17.0857 9.58485 17.2953 9.33184 17.441C9.07883 17.5868 8.79198 17.6635 8.5 17.6635C8.20802 17.6635 7.92117 17.5868 7.66816 17.441C7.41515 17.2953 7.20486 17.0857 7.05835 16.8331M13.4999 5.99991C13.4999 4.67385 12.9732 3.4021 12.0355 2.46443C11.0978 1.52676 9.82606 0.999986 8.5 0.999986C7.17394 0.999986 5.90219 1.52676 4.96452 2.46443C4.02685 3.4021 3.50007 4.67385 3.50007 5.99991C3.50007 11.8332 1.00011 13.4998 1.00011 13.4998H15.9999C15.9999 13.4998 13.4999 11.8332 13.4999 5.99991Z" stroke="#FDFDFD" stroke-width="2" stroke-linecap="round" stroke-linejoin="round"/>
</svg>
