<svg width="45" height="33" viewBox="0 0 45 33" fill="none" xmlns="http://www.w3.org/2000/svg">
<path d="M20.7282 4.99975C21.1539 4.64417 21.3667 4.46637 21.6044 4.39845C21.8139 4.33856 22.036 4.33856 22.2456 4.39845C22.4833 4.46637 22.6961 4.64417 23.1217 4.99975L34.0852 14.1585C34.5777 14.5699 34.8239 14.7757 35.001 15.0277C35.1578 15.251 35.2743 15.5 35.3451 15.7635C35.425 16.061 35.425 16.3818 35.425 17.0236V29.2667C35.425 30.5735 35.425 31.2269 35.1707 31.726C34.947 32.165 34.59 32.522 34.151 32.7457C33.6518 33 32.9984 33 31.6917 33H27.5417C26.8883 33 26.5616 33 26.312 32.8728C26.0925 32.761 25.914 32.5825 25.8021 32.363C25.675 32.1134 25.675 31.7867 25.675 31.1333V23.5889C25.675 22.9355 25.675 22.6088 25.5478 22.3592C25.436 22.1397 25.2575 21.9612 25.038 21.8494C24.7884 21.7222 24.4617 21.7222 23.8083 21.7222H21.925H20.0417C19.3883 21.7222 19.0616 21.7222 18.812 21.8494C18.5925 21.9612 18.414 22.1397 18.3021 22.3592C18.175 22.6088 18.175 22.9355 18.175 23.5889V31.1333C18.175 31.7867 18.175 32.1134 18.0478 32.363C17.936 32.5825 17.7575 32.761 17.538 32.8728C17.2884 33 16.9617 33 16.3083 33H12.1583C10.8515 33 10.1981 33 9.69901 32.7457C9.25997 32.522 8.90301 32.165 8.67931 31.726C8.42499 31.2269 8.42499 30.5735 8.42499 29.2667V17.0236C8.42499 16.3818 8.42499 16.061 8.50489 15.7635C8.57569 15.5 8.69216 15.251 8.84901 15.0277C9.02604 14.7757 9.2723 14.5699 9.76482 14.1585L20.7282 4.99975Z" fill="#87B1FF"/>
</svg>
