<svg width="45" height="33" viewBox="0 0 45 33" fill="none" xmlns="http://www.w3.org/2000/svg">
<path d="M20.7283 4.99975C21.154 4.64417 21.3668 4.46637 21.6045 4.39845C21.814 4.33856 22.0361 4.33856 22.2456 4.39845C22.4833 4.46637 22.6961 4.64417 23.1218 4.99975L34.0852 14.1585C34.5777 14.5699 34.824 14.7757 35.001 15.0277C35.1579 15.251 35.2744 15.5 35.3451 15.7635C35.425 16.061 35.425 16.3818 35.425 17.0236V29.2667C35.425 30.5735 35.425 31.2269 35.1707 31.726C34.947 32.165 34.5901 32.522 34.151 32.7457C33.6519 33 32.9985 33 31.6917 33H27.5417C26.8883 33 26.5616 33 26.3121 32.8728C26.0925 32.761 25.9141 32.5825 25.8022 32.363C25.675 32.1134 25.675 31.7867 25.675 31.1333V23.5889C25.675 22.9355 25.675 22.6088 25.5479 22.3592C25.436 22.1397 25.2576 21.9612 25.038 21.8494C24.7885 21.7222 24.4618 21.7222 23.8084 21.7222H21.925H20.0417C19.3883 21.7222 19.0616 21.7222 18.8121 21.8494C18.5925 21.9612 18.4141 22.1397 18.3022 22.3592C18.175 22.6088 18.175 22.9355 18.175 23.5889V31.1333C18.175 31.7867 18.175 32.1134 18.0479 32.363C17.936 32.5825 17.7576 32.761 17.538 32.8728C17.2885 33 16.9618 33 16.3084 33H12.1584C10.8516 33 10.1982 33 9.69907 32.7457C9.26003 32.522 8.90307 32.165 8.67937 31.726C8.42505 31.2269 8.42505 30.5735 8.42505 29.2667V17.0236C8.42505 16.3818 8.42505 16.061 8.50495 15.7635C8.57575 15.5 8.69222 15.251 8.84907 15.0277C9.0261 14.7757 9.27236 14.5699 9.76488 14.1585L20.7283 4.99975Z" fill="#7B7B7B"/>
</svg>
