<svg width="22" height="21" viewBox="0 0 22 21" fill="none" xmlns="http://www.w3.org/2000/svg">
<path d="M20.4841 12.07L18.2837 5.48405C18.2172 5.285 18.0897 5.11193 17.9194 4.98934C17.7491 4.86674 17.5444 4.80083 17.3346 4.80095C16.2981 4.81449 15.2844 4.49667 14.4412 3.89381C13.7226 2.98103 13.2221 1.9161 12.9779 0.780346C12.9386 0.60571 12.8531 0.444836 12.7304 0.314507C12.6077 0.184177 12.4522 0.0891729 12.2802 0.0394154C12.1083 -0.010342 11.9261 -0.0130425 11.7528 0.0316142C11.5794 0.0762709 11.4212 0.166634 11.2947 0.293273L5.29379 6.29417C5.19957 6.38839 5.12512 6.50046 5.07481 6.62385C5.0245 6.74723 4.99936 6.87942 5.00085 7.01265C5.00234 7.14588 5.03043 7.27748 5.08349 7.3997C5.13654 7.52193 5.21348 7.63231 5.3098 7.72439L17.8487 19.7262C18.0377 19.9073 18.2902 20.0071 18.5521 20.0041C18.8138 20.0011 19.0641 19.8956 19.2489 19.7102L20.9031 18.0519C21.6055 17.3487 22 16.3955 22 15.4015C22 14.4077 21.6055 13.4544 20.9031 12.7511C20.7128 12.5595 20.5694 12.3263 20.4841 12.07ZM19.4919 16.6377L18.5248 17.6048L7.43111 6.98528L11.5457 2.87066C11.8773 3.77234 12.3822 4.60037 13.032 5.30802C14.0333 6.16601 15.2865 6.67503 16.6025 6.75824L18.5858 12.7021C18.7711 13.2535 19.0813 13.7546 19.4919 14.1663C19.819 14.4945 20.0026 14.9388 20.0026 15.402C20.0026 15.8653 19.819 16.3096 19.4919 16.6377ZM0 15.0024C0 14.7372 0.105376 14.4829 0.292934 14.2952C0.480502 14.1077 0.73489 14.0023 1.00015 14.0023H9.00135C9.26659 14.0023 9.52103 14.1077 9.70855 14.2952C9.89608 14.4829 10.0015 14.7372 10.0015 15.0024C10.0015 15.2678 9.89608 15.5221 9.70855 15.7097C9.52103 15.8973 9.26659 16.0026 9.00135 16.0026H1.00015C0.73489 16.0026 0.480502 15.8973 0.292934 15.7097C0.105376 15.5221 0 15.2678 0 15.0024ZM0 11.0018C0 10.7366 0.105376 10.4823 0.292934 10.2946C0.480502 10.1071 0.73489 10.0017 1.00015 10.0017H5.00075C5.26601 10.0017 5.5204 10.1071 5.70797 10.2946C5.89552 10.4823 6.0009 10.7366 6.0009 11.0018C6.0009 11.2672 5.89552 11.5215 5.70797 11.7091C5.5204 11.8967 5.26601 12.002 5.00075 12.002H1.00015C0.73489 12.002 0.480502 11.8967 0.292934 11.7091C0.105376 11.5215 0 11.2672 0 11.0018ZM0 19.003C0 18.7378 0.105376 18.4835 0.292934 18.2958C0.480502 18.1083 0.73489 18.0029 1.00015 18.0029H13.0019C13.2672 18.0029 13.5216 18.1083 13.7092 18.2958C13.8967 18.4835 14.0021 18.7378 14.0021 19.003C14.0021 19.2684 13.8967 19.5227 13.7092 19.7103C13.5216 19.8979 13.2672 20.0032 13.0019 20.0032H1.00015C0.73489 20.0032 0.480502 19.8979 0.292934 19.7103C0.105376 19.5227 0 19.2684 0 19.003Z" fill="#FB8787"/>
</svg>
