<svg width="27" height="27" viewBox="0 0 27 27" fill="none" xmlns="http://www.w3.org/2000/svg">
<path d="M20.8932 6.14496L17.0611 2.31287C16.9356 2.1864 16.7863 2.08602 16.622 2.01752C16.4575 1.94901 16.2811 1.91374 16.103 1.91374C15.9249 1.91374 15.7486 1.94901 15.5841 2.01752C15.4196 2.08602 15.2704 2.1864 15.145 2.31287C14.8936 2.56568 14.7526 2.90768 14.7526 3.26415C14.7526 3.62063 14.8936 3.96261 15.145 4.21542L18.0056 7.076L7.07601 18.0055L4.21544 15.1449C3.96261 14.8937 3.62063 14.7525 3.26416 14.7525C2.90768 14.7525 2.56569 14.8937 2.31288 15.1449C2.18641 15.2704 2.08602 15.4197 2.01752 15.5841C1.94902 15.7485 1.91375 15.9248 1.91375 16.103C1.91375 16.2812 1.94902 16.4576 2.01752 16.6219C2.08602 16.7864 2.18641 16.9356 2.31288 17.061L6.1045 20.8526L9.89611 24.6442C10.0211 24.7717 10.1701 24.8732 10.3345 24.9427C10.499 25.0122 10.6756 25.0483 10.8541 25.049C11.1221 25.0506 11.3846 24.9724 11.6079 24.8242C11.8312 24.6761 12.0054 24.4647 12.1082 24.2171C12.2109 23.9697 12.2376 23.6971 12.185 23.4344C12.1322 23.1716 12.0024 22.9304 11.8122 22.7417L8.99206 19.9216L19.9216 8.99205L22.7822 11.8526C22.908 11.9775 23.0572 12.0764 23.2213 12.1438C23.3852 12.211 23.5609 12.2454 23.7382 12.2447C23.9155 12.244 24.0909 12.2085 24.2545 12.1401C24.4181 12.0717 24.5666 11.9717 24.6915 11.8458C24.8165 11.7201 24.9154 11.5708 24.9826 11.4069C25.0499 11.2428 25.0842 11.0671 25.0835 10.8898C25.083 10.7125 25.0473 10.5371 24.9789 10.3735C24.9105 10.21 24.8105 10.0615 24.6848 9.93658L20.8932 6.14496ZM2.31288 20.8661C2.05879 20.612 1.71419 20.4692 1.35486 20.4692C0.995521 20.4692 0.650916 20.612 0.396837 20.8661C0.142745 21.1202 0 21.4648 0 21.8241C0 22.1834 0.142745 22.5281 0.396837 22.7821L4.21544 26.6007C4.34152 26.7258 4.49104 26.8247 4.65544 26.8919C4.81984 26.9591 4.99588 26.9931 5.17346 26.992C5.35103 26.9931 5.52707 26.9591 5.69147 26.8919C5.85587 26.8247 6.0054 26.7258 6.13149 26.6007C6.25794 26.4754 6.35833 26.3261 6.42684 26.1617C6.49534 25.9973 6.5306 25.821 6.5306 25.6427C6.5306 25.4646 6.49534 25.2882 6.42684 25.1239C6.35833 24.9594 6.25794 24.8102 6.13149 24.6847L2.31288 20.8661ZM26.6008 4.21542L22.7822 0.396824C22.6563 0.271013 22.5071 0.171216 22.3426 0.103129C22.1783 0.035042 22.002 0 21.8242 0C21.6462 0 21.4701 0.035042 21.3056 0.103129C21.1413 0.171216 20.9919 0.271013 20.8662 0.396824C20.7403 0.522636 20.6406 0.671993 20.5724 0.836368C20.5044 1.00074 20.4693 1.17692 20.4693 1.35485C20.4693 1.53277 20.5044 1.70895 20.5724 1.87333C20.6406 2.0377 20.7403 2.18706 20.8662 2.31287L24.6848 6.13147C24.8101 6.25794 24.9594 6.35832 25.1238 6.42683C25.2883 6.49533 25.4647 6.5306 25.6428 6.5306C25.8209 6.5306 25.9973 6.49533 26.1617 6.42683C26.3261 6.35832 26.4753 6.25794 26.6008 6.13147C26.7272 6.00604 26.8276 5.8568 26.8962 5.69237C26.9646 5.52794 26.9999 5.35157 26.9999 5.17345C26.9999 4.99532 26.9646 4.81895 26.8962 4.65452C26.8276 4.49011 26.7272 4.34086 26.6008 4.21542Z" fill="#7B7B7B"/>
</svg>
